<?xml version="1.0" encoding="utf-8"?>
<!-- Generator: Adobe Illustrator 16.0.0, SVG Export Plug-In . SVG Version: 6.00 Build 0)  -->
<!DOCTYPE svg PUBLIC "-//W3C//DTD SVG 1.1//EN" "http://www.w3.org/Graphics/SVG/1.1/DTD/svg11.dtd">
<svg version="1.1" id="Layer_1" xmlns="http://www.w3.org/2000/svg" xmlns:xlink="http://www.w3.org/1999/xlink" x="0px" y="0px"
	 width="841.889px" height="595.281px" viewBox="0 0 841.889 595.281" enable-background="new 0 0 841.889 595.281"
	 xml:space="preserve">
<circle cx="313.656" cy="86.516" r="7.496"/>
<circle cx="330.32" cy="113.698" r="7.496"/>
<circle cx="254.909" cy="86.516" r="7.496"/>
<circle cx="239.922" cy="113.698" r="7.496"/>
<path d="M464.696,334.467c-9.358-9.148-20.73-13.796-33.803-13.796c-13.438,0-25.021,4.652-34.426,13.796
	c-9.349,9.234-14.125,20.711-14.125,34.117c0,13.077,4.753,24.468,14.125,33.821c9.405,9.396,20.963,14.173,34.426,14.173
	c13.072,0,24.469-4.777,33.826-14.158c9.362-9.363,14.12-20.74,14.12-33.831C478.821,355.164,474.076,343.668,464.696,334.467z
	 M445.117,382.88c-3.934,3.948-8.677,5.867-14.225,5.867s-10.281-1.924-14.253-5.867c-3.948-3.972-5.915-8.695-5.915-14.296
	c0-5.501,1.967-10.22,5.915-14.183c3.967-3.972,8.705-5.995,14.253-5.995s10.291,2.023,14.225,5.995
	c3.958,3.958,5.938,8.677,5.938,14.183C451.056,374.184,449.075,378.913,445.117,382.88z"/>
<path d="M346.077,314.641v-22.363c0,0,0-9.986,0-15.016h-0.076v-5.067c0-17.481,15.406-31.64,34.402-31.64h83.049l42.87-79.463
	c5.038-8.387,15.615-11.344,23.529-11.344h126.843v26.321h-30.878c-5.367,0-9.691,4.319-9.691,9.695l0.023,52.247l40.551,0.199
	v126.91l-159.778-0.062c0,0,2.225-22.168-11.963-40.669c-12.958-16.896-33.911-26.06-55.542-26.06
	c-17.42,0-32.226,4.943-46.288,16.577c-14.011,11.682-21.649,25.826-22.831,42.427h-13.644c-9.872,0-14.839-4.972-14.839-14.811
	v-27.883H346.077z M593.605,238.107l-0.048-50.441c0-7.539-3.733-11.301-11.272-11.301h-48.561c-4.724,0-8.157,1.281-10.815,5.515
	l-27.363,56.228H593.605z"/>
<path d="M301.498,428.811V247.512c49.228-12.024,83.473-80.263,83.473-127.685c0-54.418-44.266-98.684-98.684-98.684
	S187.6,65.41,187.6,119.828c0,47.422,34.245,115.66,83.473,127.685v181.299h-68.258v30.427h453.88v-30.427H301.498z M219.34,134.567
	c-0.843-5.053-1.314-10.006-1.314-14.739c0-37.637,30.621-68.258,68.257-68.258c37.637,0,68.263,30.621,68.263,68.258
	c0,4.738-0.472,9.687-1.314,14.739h-48.18c0.381-1.51,0.638-3.062,0.638-4.691c0-8.72-5.791-16.011-13.71-18.453V66.462h-11.382
	v44.961c-7.92,2.447-13.711,9.733-13.711,18.453c0,1.629,0.258,3.182,0.639,4.691H219.34z"/>
</svg>
